<svg width="24" height="22" viewBox="0 0 24 22" fill="none" xmlns="http://www.w3.org/2000/svg">
<path d="M7.47097 21.1643C16.6065 21.1643 21.5613 13.616 21.5613 7.07402C21.5613 6.91918 21.5613 6.64821 21.5226 6.41595C22.4903 5.71918 23.3419 4.82886 24 3.86112C23.071 4.28692 22.1419 4.51918 21.1742 4.63531C22.2194 4.01595 22.9935 3.04821 23.3419 1.88692C22.3742 2.42886 21.3677 2.85466 20.1677 3.08692C19.2387 2.11918 18 1.49983 16.5677 1.49983C16.5677 -1.24856 13.8194 1.49983 16.5677 1.49983C16.5677 1.88692 11.6129 7.26757 11.6903 7.65466C7.70323 7.3837 4.06452 5.4095 1.5871 2.42886C1.16129 3.20305 0.929032 4.01595 0.929032 4.90628C0.929032 6.64821 1.81935 8.11918 3.17419 9.0095C2.36129 8.97079 1.5871 8.73854 0.929032 8.39015C0.929032 8.42886 0.929032 8.42886 0.929032 8.42886C0.929032 10.7901 2.63226 12.8418 4.87742 13.3063C4.45161 13.4224 3.9871 13.4611 3.63871 13.4611C3.32903 13.4611 2.98065 13.4224 2.70968 13.345C3.36774 15.3192 5.1871 16.7514 7.35484 16.7901C5.65161 18.1063 3.52258 18.9192 1.23871 18.9192C0.774194 18.9966 0.387097 18.9192 0 18.8805C2.09032 20.3514 4.68387 21.1643 7.47097 21.1643Z" fill="white"/>
</svg>
